<svg width="14" height="16" viewBox="0 0 14 16" fill="none" xmlns="http://www.w3.org/2000/svg">
<path d="M7 1.33203L3 1.33203C1.34533 1.33203 1 1.67736 1 3.33203L1 14.6654L9 14.6654L9 3.33203C9 1.67736 8.65467 1.33203 7 1.33203Z" stroke="#D0D5DD" stroke-linejoin="round"/>
<path d="M11 5.33203L9 5.33203L9 14.6654L13 14.6654L13 7.33203C13 5.67736 12.6547 5.33203 11 5.33203Z" stroke="#D0D5DD" stroke-linejoin="round"/>
<path d="M4.33398 4L5.66732 4M4.33398 6L5.66732 6M4.33398 8L5.66732 8" stroke="#D0D5DD" stroke-linecap="round" stroke-linejoin="round"/>
<path d="M6.66732 14.666L6.66732 11.9993C6.66732 11.3708 6.66732 11.0565 6.47206 10.8613C6.27679 10.666 5.96252 10.666 5.33398 10.666H4.66732C4.03878 10.666 3.72451 10.666 3.52925 10.8613C3.33398 11.0565 3.33398 11.3708 3.33398 11.9993L3.33398 14.666" stroke="#D0D5DD" stroke-linejoin="round"/>
</svg>
